# xmcd CD database file generated by OrangeCD 6.5
#
# Track frame offsets:
#	150
#	13837
#	33641
#	58545
#	75213
#	88662
#	98925
#	117671
#	129070
#	155287
#	171732
#
# Disc length: 2513 seconds
#
# Revision: 3
# Processed by: cddbd v1.5.2PL0 Copyright (c) Steve Scherf et al.
# Submitted via: OrangeCD 6.5
#
DISCID=8709cf0b
DTITLE=Various Artist - Mojo Presents :Sticky Soul Fingers
DYEAR=2011
DGENRE=MOJO
TTITLE0=Alice Russell - Brown Sugar
TTITLE1=Black Joe Lewis and The Honeybears - Sway
TTITLE2=Sharon Jones and The Dap-Kings - Wild Horses
TTITLE3=The Bamboos - Can't You Hear Me Knocking
TTITLE4=Naomi Shelton and The Gospel Queens - You Gotta Move
TTITLE5=The Sugarman 3 - Bitch
TTITLE6=Aloe Blacc and Joel Van Dijk - I Got The Blues
TTITLE7=Ren Harvieu - Sister Morphine
TTITLE8=Anthony Joseph and The Spasm Band - Dead Flowers
TTITLE9=Lee Fields - Moonlight Mile
TTITLE10=Beta Hector - Angie
EXTD=
EXTT0=
EXTT1=
EXTT2=
EXTT3=
EXTT4=
EXTT5=
EXTT6=
EXTT7=
EXTT8=
EXTT9=
EXTT10=
PLAYORDER=
